<?xml version="1.0" encoding="UTF-8"?>
<mxfile host="app.diagrams.net">
  <diagram name="Page-1" id="abc123">
    <mxGraphModel dx="900" dy="520" grid="1" gridSize="10" guides="1" tooltips="1" connect="1" arrows="1" fold="1" page="1" pageScale="1" pageFormat="A4" pageScaleReal="1" unit="mm" pageScaleValue="1" math="0" shadow="0">
      <root>
        <mxCell id="0" />
        <mxCell id="abc123" parent="0" />
        <mxCell id="HROOXuzEpF9XK16WZuMe-11" value="" style="group" vertex="1" connectable="0" connectEdges="0" collapsible="0" collapsed="0" cloned="0" id="HROOXuzEpF9XK16WZuMe-11" styleChild="0">
          <mxGeometry x="20" y="20" width="860" height="480" as="geometry" />
          <mxChildren>
            <mxCell id="HROOXuzEpF9XK16WZuMe-11-1" value="" style="group" vertex="1" connectable="0" connectEdges="0" collapsible="0" collapsed="0" cloned="0" id="HROOXuzEpF9XK16WZuMe-11-1" styleChild="0">
              <mxGeometry x="10" y="10" width="840" height="460" as="geometry" />
              <mxChildren>
                <mxCell id="HROOXuzEpF9XK16WZuMe-11-2" value="User Request" style="rounded=0;whiteSpace=wrap;html=1;" vertex="1" connectable="0" connectEdges="1" collapsible="0" collapsed="0" cloned="0" id="HROOXuzEpF9XK16WZuMe-11-2" styleChild="0">
                  <mxGeometry x="20" y="60" width="120" height="60" as="geometry" />
                </mxCell>
                <mxCell id="HROOXuzEpF9XK16WZuMe-11-3" value="Backend/API Gateway" style="rounded=0;whiteSpace=wrap;html=1;" vertex="1" connectable="0" connectEdges="1" collapsible="0" collapsed="0" cloned="0" id="HROOXuzEpF9XK16WZuMe-11-3" styleChild="0">
                  <mxGeometry x="20" y="160" width="120" height="60" as="geometry" />
                </mxCell>
                <!-- Add more cells for other components -->
              </mxChildren>
            </mxCell>
            <!-- Add more cells for other components -->
          </mxChildren>
        </mxCell>
      </root>
    </mxGraphModel>
  </diagram>
</mxfile>
